HIERARCHY
ROOT Hips
{
  OFFSET 150.432 88.1888 27.0678
  CHANNELS 6 Xposition Yposition Zposition Zrotation Xrotation Yrotation
  JOINT RightUpLeg
  {
    OFFSET -9.25679 -1.50405 0.000749919
    CHANNELS 3 Zrotation Xrotation Yrotation
    JOINT RightLeg
    {
      OFFSET 0.0460649 -41.9017 0.109432
      CHANNELS 3 Zrotation Xrotation Yrotation
      JOINT RightFoot
      {
        OFFSET 1.7988 -41.6468 0.413135
        CHANNELS 3 Zrotation Xrotation Yrotation
        End Site
        {
          OFFSET 0 -7.69 17.5
        }
      }
    }
  }
  JOINT LeftUpLeg
  {
    OFFSET 9.37007 -1.70178 -0.0772456
    CHANNELS 3 Zrotation Xrotation Yrotation
    JOINT LeftLeg
    {
      OFFSET 0.225295 -41.8622 -0.102498
      CHANNELS 3 Zrotation Xrotation Yrotation
      JOINT LeftFoot
      {
        OFFSET -2.07126 -41.2817 -1.22305
        CHANNELS 3 Zrotation Xrotation Yrotation
        End Site
        {
          OFFSET 0 -7.69 17.5
        }
      }
    }
  }
  JOINT Spine
  {
    OFFSET 0.0614897 14.2979 0.0172263
    CHANNELS 3 Zrotation Xrotation Yrotation
    JOINT Spine1
    {
      OFFSET 0.0253415 9.71429 0.00919728
      CHANNELS 3 Zrotation Xrotation Yrotation
      JOINT Spine2
      {
        OFFSET -0.0163533 10.1275 0.00641818
        CHANNELS 3 Zrotation Xrotation Yrotation
        JOINT Spine3
        {
          OFFSET 0.00964153 9.71178 0.018187
          CHANNELS 3 Zrotation Xrotation Yrotation
          JOINT Neck
          {
            OFFSET -0.0402277 10.3749 0.0917408
            CHANNELS 3 Zrotation Xrotation Yrotation
            JOINT Head
            {
              OFFSET 0.0121048 9.49481 0.108971
              CHANNELS 3 Zrotation Xrotation Yrotation
              End Site
              {
                OFFSET 0 15.95 0
              }
            }
          }
          JOINT RightShoulder
          {
            OFFSET -3.18208 6.946 0.015457
            CHANNELS 3 Zrotation Xrotation Yrotation
            JOINT RightArm
            {
              OFFSET -12.7708 0.0386499 -0.00729584
              CHANNELS 3 Zrotation Xrotation Yrotation
              JOINT RightForeArm
              {
                OFFSET -26.422 0.00272702 0.0331834
                CHANNELS 3 Zrotation Xrotation Yrotation
                JOINT RightHand
                {
                  OFFSET -25.9963 -0.0318335 0.00677283
                  CHANNELS 3 Zrotation Xrotation Yrotation
                  JOINT RightHandThumb1
                  {
                    OFFSET -2.48905 0.190105 3.12053
                    CHANNELS 3 Zrotation Xrotation Yrotation
                    JOINT RightHandThumb2
                    {
                      OFFSET -3.68274 0 0
                      CHANNELS 3 Zrotation Xrotation Yrotation
                      JOINT RightHandThumb3
                      {
                        OFFSET -2.55832 0 0
                        CHANNELS 3 Zrotation Xrotation Yrotation
                        End Site
                        {
                          OFFSET -2.194 0 0
                        }
                      }
                    }
                  }
                  JOINT RightInHandIndex
                  {
                    OFFSET -3.22368 0.508421 1.97842
                    CHANNELS 3 Zrotation Xrotation Yrotation
                    JOINT RightHandIndex1
                    {
                      OFFSET -5.21684 -0.091368 0.999158
                      CHANNELS 3 Zrotation Xrotation Yrotation
                      JOINT RightHandIndex2
                      {
                        OFFSET -3.61937 0 0
                        CHANNELS 3 Zrotation Xrotation Yrotation
                        JOINT RightHandIndex3
                        {
                          OFFSET -2.0521 0 0
                          CHANNELS 3 Zrotation Xrotation Yrotation
                          End Site
                          {
                            OFFSET -1.805 0 0
                          }
                        }
                      }
                    }
                  }
                  JOINT RightInHandMiddle
                  {
                    OFFSET -3.38211 0.517263 0.756737
                    CHANNELS 3 Zrotation Xrotation Yrotation
                    JOINT RightHandMiddle1
                    {
                      OFFSET -5.17411 -0.084 0.313895
                      CHANNELS 3 Zrotation Xrotation Yrotation
                      JOINT RightHandMiddle2
                      {
                        OFFSET -3.94947 0 0
                        CHANNELS 3 Zrotation Xrotation Yrotation
                        JOINT RightHandMiddle3
                        {
                          OFFSET -2.47579 0 0
                          CHANNELS 3 Zrotation Xrotation Yrotation
                          End Site
                          {
                            OFFSET -1.975 0 0
                          }
                        }
                      }
                    }
                  }
                  JOINT RightInHandRing
                  {
                    OFFSET -3.36516 0.537895 -0.128947
                    CHANNELS 3 Zrotation Xrotation Yrotation
                    JOINT RightHandRing1
                    {
                      OFFSET -4.63474 -0.022105 -0.478947
                      CHANNELS 3 Zrotation Xrotation Yrotation
                      JOINT RightHandRing2
                      {
                        OFFSET -3.44238 0 0
                        CHANNELS 3 Zrotation Xrotation Yrotation
                        JOINT RightHandRing3
                        {
                          OFFSET -2.3881 0 0
                          CHANNELS 3 Zrotation Xrotation Yrotation
                          End Site
                          {
                            OFFSET -1.857 0 0
                          }
                        }
                      }
                    }
                  }
                  JOINT RightInHandPinky
                  {
                    OFFSET -3.16105 0.469368 -1.20179
                    CHANNELS 3 Zrotation Xrotation Yrotation
                    JOINT RightHandPinky1
                    {
                      OFFSET -4.14105 -0.022105 -1.09053
                      CHANNELS 3 Zrotation Xrotation Yrotation
                      JOINT RightHandPinky2
                      {
                        OFFSET -2.75653 0 0
                        CHANNELS 3 Zrotation Xrotation Yrotation
                        JOINT RightHandPinky3
                        {
                          OFFSET -1.74189 0 0
                          CHANNELS 3 Zrotation Xrotation Yrotation
                          End Site
                          {
                            OFFSET -1.645 0 0
                          }
                        }
                      }
                    }
                  }
                }
              }
            }
          }
          JOINT LeftShoulder
          {
            OFFSET 3.18966 6.92856 0.062398
            CHANNELS 3 Zrotation Xrotation Yrotation
            JOINT LeftArm
            {
              OFFSET 12.7601 -0.0509086 0.00275124
              CHANNELS 3 Zrotation Xrotation Yrotation
              JOINT LeftForeArm
              {
                OFFSET 26.4828 -0.0571091 -0.0285564
                CHANNELS 3 Zrotation Xrotation Yrotation
                JOINT LeftHand
                {
                  OFFSET 25.9994 -0.0171136 -0.0547064
                  CHANNELS 3 Zrotation Xrotation Yrotation
                  JOINT LeftHandThumb1
                  {
                    OFFSET 2.48905 0.190105 3.12053
                    CHANNELS 3 Zrotation Xrotation Yrotation
                    JOINT LeftHandThumb2
                    {
                      OFFSET 3.68274 0 0
                      CHANNELS 3 Zrotation Xrotation Yrotation
                      JOINT LeftHandThumb3
                      {
                        OFFSET 2.55832 0 0
                        CHANNELS 3 Zrotation Xrotation Yrotation
                        End Site
                        {
                          OFFSET 2.194 0 0
                        }
                      }
                    }
                  }
                  JOINT LeftInHandIndex
                  {
                    OFFSET 3.22368 0.508421 1.97842
                    CHANNELS 3 Zrotation Xrotation Yrotation
                    JOINT LeftHandIndex1
                    {
                      OFFSET 5.21684 -0.091368 0.999158
                      CHANNELS 3 Zrotation Xrotation Yrotation
                      JOINT LeftHandIndex2
                      {
                        OFFSET 3.61937 0 0
                        CHANNELS 3 Zrotation Xrotation Yrotation
                        JOINT LeftHandIndex3
                        {
                          OFFSET 2.0521 0 0
                          CHANNELS 3 Zrotation Xrotation Yrotation
                          End Site
                          {
                            OFFSET 1.805 0 0
                          }
                        }
                      }
                    }
                  }
                  JOINT LeftInHandMiddle
                  {
                    OFFSET 3.38211 0.517263 0.756737
                    CHANNELS 3 Zrotation Xrotation Yrotation
                    JOINT LeftHandMiddle1
                    {
                      OFFSET 5.17411 -0.084 0.313895
                      CHANNELS 3 Zrotation Xrotation Yrotation
                      JOINT LeftHandMiddle2
                      {
                        OFFSET 3.94947 0 0
                        CHANNELS 3 Zrotation Xrotation Yrotation
                        JOINT LeftHandMiddle3
                        {
                          OFFSET 2.47579 0 0
                          CHANNELS 3 Zrotation Xrotation Yrotation
                          End Site
                          {
                            OFFSET 1.975 0 0
                          }
                        }
                      }
                    }
                  }
                  JOINT LeftInHandRing
                  {
                    OFFSET 3.36516 0.537895 -0.128947
                    CHANNELS 3 Zrotation Xrotation Yrotation
                    JOINT LeftHandRing1
                    {
                      OFFSET 4.63474 -0.022105 -0.478947
                      CHANNELS 3 Zrotation Xrotation Yrotation
                      JOINT LeftHandRing2
                      {
                        OFFSET 3.44238 0 0
                        CHANNELS 3 Zrotation Xrotation Yrotation
                        JOINT LeftHandRing3
                        {
                          OFFSET 2.3881 0 0
                          CHANNELS 3 Zrotation Xrotation Yrotation
                          End Site
                          {
                            OFFSET 1.857 0 0
                          }
                        }
                      }
                    }
                  }
                  JOINT LeftInHandPinky
                  {
                    OFFSET 3.16105 0.469368 -1.20179
                    CHANNELS 3 Zrotation Xrotation Yrotation
                    JOINT LeftHandPinky1
                    {
                      OFFSET 4.14105 -0.022105 -1.09053
                      CHANNELS 3 Zrotation Xrotation Yrotation
                      JOINT LeftHandPinky2
                      {
                        OFFSET 2.75653 0 0
                        CHANNELS 3 Zrotation Xrotation Yrotation
                        JOINT LeftHandPinky3
                        {
                          OFFSET 1.74189 0 0
                          CHANNELS 3 Zrotation Xrotation Yrotation
                          End Site
                          {
                            OFFSET 1.645 0 0
                          }
                        }
                      }
                    }
                  }
                }
              }
            }
          }
        }
      }
    }
  }
}
MOTION
Frames: 2
Frame Time: 0.00833333
1.051832761958503170e+03 8.798856115823957680e+01 2.778274423208388910e+01 2.149092735984435265e+01 -2.316726719799068945e+01 -1.447103508106684160e+02 9.107913112771065300e+00 -5.819140338673745561e+01 2.387673147376878902e+01 -1.589125580136628635e+00 2.982253086223865424e+01 1.739665991119604982e+01 9.377244296967775838e+00 -2.629390731906156908e+00 -6.996469458843471045e+00 3.379191629804616781e+01 -4.394964644572804957e+01 4.662608903587719311e+01 1.785086071249315065e+00 3.312519631044906987e+01 1.220976897173030551e+01 -1.162546686520827421e+01 -3.788251313873603365e+00 -7.037973044951035817e-01 -1.168194931258032554e+01 7.454991223186041793e+00 1.336343966451322629e+01 -2.800332213919330293e+00 2.818732989006206058e+00 3.149293316932160636e+00 -4.453583906281000537e+00 3.473216146563507856e+00 4.589039867089857339e+00 1.280297670984696379e-01 8.465578303053088172e-02 -1.104602884916872085e-01 5.810619294700878346e-01 3.613538915525862927e-01 -2.379699646823643988e+00 2.690682805808643607e+00 3.971342149674365718e+00 -5.480753801657485269e-01 3.775726582120518815e-01 -7.788019020629499245e+00 2.906142869205140755e+00 5.677026225868943499e+01 5.345413040373323987e+00 4.789112008861818026e+01 2.266189892840659326e+01 -2.939809384097624445e+01 7.079500055809035075e+01 -7.375512903918110652e+00 -1.144914580344007504e+01 2.430402988585763424e+00 2.818399999999999039e+01 1.072940000000000005e+01 1.915920000000001266e+01 2.274806974103635628e-15 -1.883111018173595074e-16 -1.000000000000000000e+01 1.261301227455381140e-14 6.448356049636067350e-16 -1.000000000000000000e+01 2.377873676988504316e-16 -6.368233133316901332e-15 -3.626848738309812249e-15 1.998180000000001044e+01 8.718970000000003662e-01 2.396399999999999864e+00 2.400000000000000000e+01 6.585782103723578005e-15 6.517144906501015279e-16 2.000000000000000000e+01 2.465902785795049111e-15 -3.126704662627922920e-15 2.377873676988504316e-16 -6.368233133316901332e-15 -3.626848738309812249e-15 2.000000000000000000e+01 -1.814826497661571126e-15 2.039206835798837664e-15 2.400000000000000000e+01 -5.060089350320773592e-17 -3.912793390522307571e-15 2.000000000000000000e+01 4.353501909224878578e-16 5.482099512366667684e-15 2.377873676988504316e-16 -6.368233133316901332e-15 -3.626848738309812249e-15 1.997479999999999123e+01 -1.025649999999999507e+00 -2.819379999999998887e+00 2.400000000000000000e+01 -2.919353508735019094e-15 -8.841688325926636855e-16 2.000000000000000000e+01 1.248398975916687649e-15 -2.537852328208567473e-15 2.377873676988504316e-16 -6.368233133316901332e-15 -3.626848738309812249e-15 1.978150000000001185e+01 -3.009479999999997712e+00 -8.305150000000002919e+00 2.400000000000000000e+01 -4.556714874066303989e-15 1.981673635686208654e-15 2.000000000000000000e+01 1.029143853123812756e-15 -1.548625161084039566e-14 2.221063578558608143e+00 -1.265931867425781121e+01 -1.780914297105643129e+01 -3.106137804665932833e+01 2.303899414940534740e+01 -7.532419203559753385e+01 6.257582567624822900e+00 -4.354709862338383175e+01 -8.554370076490793906e+01 -4.181378655495487351e+01 -1.540830330156484607e+01 -8.133638491880688548e+00 -2.818399999999999039e+01 1.072940000000000005e+01 -1.915920000000001266e+01 1.974052624589975464e-15 7.274428705960089862e-16 1.000000000000000000e+01 -1.864464895166171414e-16 4.075438129212012517e-15 1.000000000000000000e+01 -3.648421338739659794e-15 -8.371451017293601048e-16 -2.357914145833555923e-16 -1.998180000000001044e+01 8.718970000000003662e-01 -2.396399999999999864e+00 -2.400000000000000000e+01 -3.303753654783608181e-15 9.668736348980119672e-15 -2.000000000000000000e+01 -2.813190647278045056e-15 -2.656935271763051075e-15 -3.648421338739659794e-15 -8.371451017293601048e-16 -2.357914145833555923e-16 -2.000000000000000000e+01 9.670228956058577524e-16 7.669819096022943371e-15 -2.400000000000000000e+01 2.034722153121562898e-15 6.502562210260168787e-15 -2.000000000000000000e+01 2.249655306909188159e-15 9.405785172289624033e-15 -3.648421338739659794e-15 -8.371451017293601048e-16 -2.357914145833555923e-16 -1.997479999999999123e+01 -1.025649999999999507e+00 2.819379999999998887e+00 -2.400000000000000000e+01 -4.303536073691462409e-15 5.387250679130375517e-15 -2.000000000000000000e+01 2.117469984313565657e-15 8.972657777041875487e-15 -3.648421338739659794e-15 -8.371451017293601048e-16 -2.357914145833555923e-16 -1.978150000000001185e+01 -3.009479999999997712e+00 8.305150000000002919e+00 -2.400000000000000000e+01 -5.064325809744488703e-15 5.097929612059513541e-15 -2.000000000000000000e+01 1.968674452623144428e-16 -9.462903891548457523e-16
1.051829500219675310e+03 8.799059585498794434e+01 2.777433018655488084e+01 2.149749575107180632e+01 -2.314830448743687441e+01 -1.446375235157848635e+02 9.010698382515506921e+00 -5.817478781241725727e+01 2.378777621883585880e+01 -1.575003732002630663e+00 2.984275535174573690e+01 1.737389246001048093e+01 9.370876420977177546e+00 -2.657647088163632709e+00 -7.015829928822343575e+00 3.374212814496243595e+01 -4.397085165565663090e+01 4.657213566033303209e+01 1.805687895397134923e+00 3.311212856854072584e+01 1.218099293470562827e+01 -1.162267891553977250e+01 -3.776199499727596276e+00 -7.184979235132304964e-01 -1.168784207739522074e+01 7.457719137009235055e+00 1.342891459944954669e+01 -2.801571277492152845e+00 2.823240167950407553e+00 3.166061762213439934e+00 -4.454655240683260686e+00 3.474837405075618335e+00 4.613783488808068434e+00 1.309582572111064880e-01 8.524819743838990549e-02 -1.166076734007792659e-01 5.881734604239359232e-01 3.638844114487802539e-01 -2.414416361807857569e+00 2.747536417247823159e+00 3.992544310249372508e+00 -6.477678637857167132e-01 3.587884983817757334e-01 -7.818784161056981930e+00 2.923547510871262300e+00 5.667601552175628399e+01 5.327310738670042234e+00 4.801848593246747043e+01 2.261444576942655260e+01 -2.939799490111814961e+01 7.102354097974038893e+01 -7.358991086116354552e+00 -1.142811088404970299e+01 2.407182638504539618e+00 2.818399999999999039e+01 1.072940000000000005e+01 1.915920000000001266e+01 2.287693092942035585e-15 -1.992555084062059645e-16 -1.000000000000000000e+01 1.266392009422665922e-14 6.467967533835123528e-16 -1.000000000000000000e+01 2.223566398345637313e-16 -6.407595625976039679e-15 -3.644628994807635090e-15 1.998180000000001044e+01 8.718970000000003662e-01 2.396399999999999864e+00 2.400000000000000000e+01 6.628902118342139101e-15 6.926792899457604645e-16 2.000000000000000000e+01 2.483589797268087742e-15 -3.160056004080252326e-15 2.223566398345637313e-16 -6.407595625976039679e-15 -3.644628994807635090e-15 2.000000000000000000e+01 -1.830390591889829935e-15 2.035911561467143330e-15 2.400000000000000000e+01 -3.080281805713213978e-17 -3.890681273958808635e-15 2.000000000000000000e+01 4.406395040311818649e-16 5.485193303415235724e-15 2.223566398345637313e-16 -6.407595625976039679e-15 -3.644628994807635090e-15 1.997479999999999123e+01 -1.025649999999999507e+00 -2.819379999999998887e+00 2.400000000000000000e+01 -2.924511665785432479e-15 -8.548607089794278897e-16 2.000000000000000000e+01 1.258072861663583036e-15 -2.559618008023419004e-15 2.223566398345637313e-16 -6.407595625976039679e-15 -3.644628994807635090e-15 1.978150000000001185e+01 -3.009479999999997712e+00 -8.305150000000002919e+00 2.400000000000000000e+01 -4.578250726054171849e-15 1.982902960090882491e-15 2.000000000000000000e+01 1.033089649922872728e-15 -1.557121797514514665e-14 2.240492309387445147e+00 -1.265684845608744169e+01 -1.777434146604097265e+01 -3.122297589814449026e+01 2.298303802269868967e+01 -7.515372858764351349e+01 5.899839819178964717e+00 -4.360056025432806592e+01 -8.623945003446273461e+01 -4.186998174807550299e+01 -1.552528776872109262e+01 -8.129455785627676789e+00 -2.818399999999999039e+01 1.072940000000000005e+01 -1.915920000000001266e+01 1.978362852618064812e-15 7.384123041553138552e-16 1.000000000000000000e+01 -2.014926735102026124e-16 4.092696173925111858e-15 1.000000000000000000e+01 -3.677600350963285524e-15 -8.372114753766536505e-16 -2.335528892692050663e-16 -1.998180000000001044e+01 8.718970000000003662e-01 -2.396399999999999864e+00 -2.400000000000000000e+01 -3.317940796429620952e-15 9.718779953187796912e-15 -2.000000000000000000e+01 -2.831389354848271047e-15 -2.674192890865162338e-15 -3.677600350963285524e-15 -8.372114753766536505e-16 -2.335528892692050663e-16 -2.000000000000000000e+01 9.658409429372476135e-16 7.703920041008128691e-15 -2.400000000000000000e+01 2.037125683402219448e-15 6.528034427637326571e-15 -2.000000000000000000e+01 2.261968895154711553e-15 9.461602287280271214e-15 -3.677600350963285524e-15 -8.372114753766536505e-16 -2.335528892692050663e-16 -1.997479999999999123e+01 -1.025649999999999507e+00 2.819379999999998887e+00 -2.400000000000000000e+01 -4.323009755414935370e-15 5.414407013201573942e-15 -2.000000000000000000e+01 2.134804515966296110e-15 9.012843721340828515e-15 -3.677600350963285524e-15 -8.372114753766536505e-16 -2.335528892692050663e-16 -1.978150000000001185e+01 -3.009479999999997712e+00 8.305150000000002919e+00 -2.400000000000000000e+01 -5.089125452568009626e-15 5.131586806166178610e-15 -2.000000000000000000e+01 1.869750571604287448e-16 -9.358851761165690975e-16
